<svg width="170" height="170" viewBox="0 0 170 170" fill="none" xmlns="http://www.w3.org/2000/svg">
<g clip-path="url(#clip0)">
<rect width="170" height="170" fill="url(#paint0_linear)"/>
<mask id="path-1-inside-1" fill="white">
<path d="M33.1858 171.773L16.8338 162.04C16.594 161.897 16.3012 161.897 16.0614 162.04L-0.290596 171.773C-0.53354 171.918 -0.683044 172.187 -0.683044 172.478L-0.683044 190.322C-0.683044 190.612 -0.53354 190.882 -0.290596 191.026L16.0614 200.759C16.1814 200.831 16.3137 200.866 16.4477 200.866C16.5816 200.866 16.714 200.831 16.8339 200.759L33.1859 191.026C33.4288 190.882 33.5784 190.612 33.5784 190.322V172.478C33.5783 172.187 33.4288 171.918 33.1858 171.773Z"/>
</mask>
<path d="M33.1858 171.773L16.8338 162.04C16.594 161.897 16.3012 161.897 16.0614 162.04L-0.290596 171.773C-0.53354 171.918 -0.683044 172.187 -0.683044 172.478L-0.683044 190.322C-0.683044 190.612 -0.53354 190.882 -0.290596 191.026L16.0614 200.759C16.1814 200.831 16.3137 200.866 16.4477 200.866C16.5816 200.866 16.714 200.831 16.8339 200.759L33.1859 191.026C33.4288 190.882 33.5784 190.612 33.5784 190.322V172.478C33.5783 172.187 33.4288 171.918 33.1858 171.773Z" fill="url(#paint1_linear)" stroke="#C4C4C4" stroke-width="0.2" mask="url(#path-1-inside-1)"/>
<mask id="path-2-inside-2" fill="white">
<path d="M-0.182707 171.433L-16.5347 161.699C-16.7745 161.557 -17.0673 161.557 -17.3071 161.699L-33.6591 171.433C-33.9021 171.577 -34.0516 171.846 -34.0516 172.137V189.981C-34.0516 190.272 -33.9021 190.541 -33.6591 190.685L-17.3071 200.419C-17.1872 200.49 -17.0548 200.526 -16.9209 200.526C-16.7869 200.526 -16.6546 200.49 -16.5346 200.419L-0.182631 190.685C0.0603131 190.541 0.209816 190.272 0.209816 189.981V172.137C0.209743 171.846 0.0602375 171.577 -0.182707 171.433Z"/>
</mask>
<path d="M-0.182707 171.433L-16.5347 161.699C-16.7745 161.557 -17.0673 161.557 -17.3071 161.699L-33.6591 171.433C-33.9021 171.577 -34.0516 171.846 -34.0516 172.137V189.981C-34.0516 190.272 -33.9021 190.541 -33.6591 190.685L-17.3071 200.419C-17.1872 200.49 -17.0548 200.526 -16.9209 200.526C-16.7869 200.526 -16.6546 200.49 -16.5346 200.419L-0.182631 190.685C0.0603131 190.541 0.209816 190.272 0.209816 189.981V172.137C0.209743 171.846 0.0602375 171.577 -0.182707 171.433Z" fill="url(#paint2_linear)" stroke="#C4C4C4" mask="url(#path-2-inside-2)"/>
<path d="M67.4803 172.102L51.1283 162.368C50.8885 162.226 50.5957 162.226 50.3559 162.368L34.0039 172.102C33.761 172.246 33.6115 172.515 33.6115 172.806V190.65C33.6115 190.941 33.761 191.21 34.0039 191.354L50.3559 201.088C50.4758 201.159 50.6082 201.195 50.7421 201.195C50.8761 201.195 51.0084 201.159 51.1284 201.088L67.4804 191.354C67.7233 191.21 67.8728 190.941 67.8728 190.65V172.806C67.8728 172.515 67.7232 172.246 67.4803 172.102Z" fill="url(#paint3_linear)"/>
<path d="M101.858 171.933L85.5061 162.2C85.2663 162.057 84.9735 162.057 84.7337 162.2L68.3817 171.933C68.1388 172.078 67.9893 172.347 67.9893 172.637V190.482C67.9893 190.772 68.1388 191.042 68.3817 191.186L84.7337 200.919C84.8536 200.991 84.986 201.026 85.12 201.026C85.2539 201.026 85.3863 200.991 85.5062 200.919L101.858 191.186C102.101 191.042 102.251 190.772 102.251 190.482V172.637C102.251 172.347 102.101 172.078 101.858 171.933Z" fill="url(#paint4_linear)"/>
<path d="M50.5852 162.191L34.2332 171.925C33.9934 172.067 33.7006 172.067 33.4608 171.925L17.1088 162.191C16.8658 162.047 16.7163 161.778 16.7163 161.487L16.7163 143.643C16.7163 143.352 16.8658 143.083 17.1088 142.939L33.4608 133.205C33.5807 133.134 33.713 133.098 33.847 133.098C33.981 133.098 34.1133 133.134 34.2332 133.205L50.5852 142.939C50.8282 143.083 50.9777 143.352 50.9777 143.643V161.487C50.9776 161.778 50.8281 162.047 50.5852 162.191Z" fill="url(#paint5_linear)"/>
<path d="M33.5831 133.168L17.2311 142.901C16.9913 143.044 16.6985 143.044 16.4587 142.901L0.106682 133.168C-0.136263 133.024 -0.285767 132.754 -0.285767 132.464L-0.285767 114.619C-0.285767 114.329 -0.136263 114.06 0.106682 113.915L16.4587 104.182C16.5786 104.111 16.711 104.075 16.8449 104.075C16.9789 104.075 17.1112 104.111 17.2312 104.182L33.5832 113.915C33.8261 114.06 33.9756 114.329 33.9756 114.619V132.464C33.9756 132.754 33.8261 133.024 33.5831 133.168Z" fill="url(#paint6_linear)"/>
<mask id="path-7-inside-3" fill="white">
<path d="M16.4803 162.185L0.128253 171.918C-0.111552 172.061 -0.404353 172.061 -0.644158 171.918L-16.9962 162.185C-17.2391 162.04 -17.3886 161.771 -17.3886 161.481V143.636C-17.3886 143.346 -17.2391 143.076 -16.9962 142.932L-0.644158 133.199C-0.524219 133.127 -0.391869 133.092 -0.257914 133.092C-0.123959 133.092 0.0083883 133.127 0.128327 133.199L16.4803 142.932C16.7233 143.076 16.8728 143.346 16.8728 143.636V161.481C16.8727 161.771 16.7232 162.04 16.4803 162.185Z"/>
</mask>
<path d="M16.4803 162.185L0.128253 171.918C-0.111552 172.061 -0.404353 172.061 -0.644158 171.918L-16.9962 162.185C-17.2391 162.04 -17.3886 161.771 -17.3886 161.481V143.636C-17.3886 143.346 -17.2391 143.076 -16.9962 142.932L-0.644158 133.199C-0.524219 133.127 -0.391869 133.092 -0.257914 133.092C-0.123959 133.092 0.0083883 133.127 0.128327 133.199L16.4803 142.932C16.7233 143.076 16.8728 143.346 16.8728 143.636V161.481C16.8727 161.771 16.7232 162.04 16.4803 162.185Z" fill="url(#paint7_linear)" stroke="#C4C4C4" stroke-width="0.2" mask="url(#path-7-inside-3)"/>
<mask id="path-8-inside-4" fill="white">
<path d="M128.563 2.71416L139.125 9.00114C139.28 9.09333 139.469 9.09333 139.624 9.00114L150.186 2.71416C150.343 2.62089 150.44 2.44697 150.44 2.25939V-9.26674C150.44 -9.45432 150.343 -9.62824 150.186 -9.72152L139.624 -16.0085C139.547 -16.0546 139.461 -16.0776 139.375 -16.0776C139.288 -16.0776 139.203 -16.0546 139.125 -16.0085L128.563 -9.72152C128.406 -9.62824 128.31 -9.45432 128.31 -9.26674V2.25939C128.31 2.44697 128.406 2.62089 128.563 2.71416Z"/>
</mask>
<path d="M128.563 2.71416L139.125 9.00114C139.28 9.09333 139.469 9.09333 139.624 9.00114L150.186 2.71416C150.343 2.62089 150.44 2.44697 150.44 2.25939V-9.26674C150.44 -9.45432 150.343 -9.62824 150.186 -9.72152L139.624 -16.0085C139.547 -16.0546 139.461 -16.0776 139.375 -16.0776C139.288 -16.0776 139.203 -16.0546 139.125 -16.0085L128.563 -9.72152C128.406 -9.62824 128.31 -9.45432 128.31 -9.26674V2.25939C128.31 2.44697 128.406 2.62089 128.563 2.71416Z" fill="url(#paint8_linear)" stroke="#C4C4C4" stroke-width="0.2" mask="url(#path-8-inside-4)"/>
<mask id="path-9-inside-5" fill="white">
<path d="M160.94 21.0764L171.503 27.3634C171.657 27.4556 171.847 27.4556 172.002 27.3634L182.564 21.0764C182.721 20.9831 182.817 20.8092 182.817 20.6216V9.09548C182.817 8.90791 182.721 8.73398 182.564 8.64071L172.002 2.35374C171.924 2.30762 171.839 2.28458 171.752 2.28458C171.666 2.28458 171.58 2.30762 171.503 2.35374L160.94 8.64071C160.783 8.73398 160.687 8.90791 160.687 9.09548V20.6216C160.687 20.8092 160.784 20.9831 160.94 21.0764Z"/>
</mask>
<path d="M160.94 21.0764L171.503 27.3634C171.657 27.4556 171.847 27.4556 172.002 27.3634L182.564 21.0764C182.721 20.9831 182.817 20.8092 182.817 20.6216V9.09548C182.817 8.90791 182.721 8.73398 182.564 8.64071L172.002 2.35374C171.924 2.30762 171.839 2.28458 171.752 2.28458C171.666 2.28458 171.58 2.30762 171.503 2.35374L160.94 8.64071C160.783 8.73398 160.687 8.90791 160.687 9.09548V20.6216C160.687 20.8092 160.784 20.9831 160.94 21.0764Z" fill="url(#paint9_linear)" stroke="#C4C4C4" stroke-width="0.2" mask="url(#path-9-inside-5)"/>
<path d="M150.476 39.6744L161.038 45.9613C161.193 46.0535 161.382 46.0535 161.537 45.9613L172.099 39.6744C172.256 39.5811 172.353 39.4072 172.353 39.2196V27.6935C172.353 27.5059 172.256 27.332 172.099 27.2387L161.537 20.9517C161.459 20.9056 161.374 20.8826 161.287 20.8826C161.201 20.8826 161.115 20.9056 161.038 20.9517L150.476 27.2387C150.319 27.332 150.222 27.5059 150.222 27.6935V39.2196C150.222 39.4072 150.319 39.5811 150.476 39.6744Z" fill="url(#paint10_linear)"/>
<mask id="path-11-inside-6" fill="white">
<path d="M150.131 2.76391L160.693 9.05088C160.848 9.14307 161.037 9.14307 161.192 9.05088L171.754 2.76391C171.911 2.67063 172.007 2.49671 172.007 2.30913V-9.217C172.007 -9.40458 171.911 -9.5785 171.754 -9.67178L161.192 -15.9588C161.114 -16.0049 161.029 -16.0279 160.942 -16.0279C160.856 -16.0279 160.77 -16.0049 160.693 -15.9588L150.131 -9.67178C149.974 -9.5785 149.877 -9.40458 149.877 -9.217V2.30913C149.877 2.49671 149.974 2.67063 150.131 2.76391Z"/>
</mask>
<path d="M150.131 2.76391L160.693 9.05088C160.848 9.14307 161.037 9.14307 161.192 9.05088L171.754 2.76391C171.911 2.67063 172.007 2.49671 172.007 2.30913V-9.217C172.007 -9.40458 171.911 -9.5785 171.754 -9.67178L161.192 -15.9588C161.114 -16.0049 161.029 -16.0279 160.942 -16.0279C160.856 -16.0279 160.77 -16.0049 160.693 -15.9588L150.131 -9.67178C149.974 -9.5785 149.877 -9.40458 149.877 -9.217V2.30913C149.877 2.49671 149.974 2.67063 150.131 2.76391Z" fill="url(#paint11_linear)" stroke="#C4C4C4" stroke-width="0.2" mask="url(#path-11-inside-6)"/>
<path d="M106.05 2.7297L116.612 9.01668C116.767 9.10887 116.956 9.10887 117.111 9.01668L127.673 2.7297C127.83 2.63643 127.927 2.46251 127.927 2.27493V-9.25121C127.927 -9.43878 127.83 -9.61271 127.673 -9.70598L117.111 -15.993C117.034 -16.0391 116.948 -16.0621 116.862 -16.0621C116.775 -16.0621 116.69 -16.0391 116.612 -15.993L106.05 -9.70598C105.893 -9.61271 105.796 -9.43878 105.796 -9.25121V2.27493C105.796 2.46251 105.893 2.63643 106.05 2.7297Z" fill="url(#paint12_linear)"/>
<path d="M84.019 2.65294L94.5811 8.93991C94.736 9.0321 94.9251 9.0321 95.08 8.93991L105.642 2.65294C105.799 2.55966 105.896 2.38574 105.896 2.19816V-9.32797C105.896 -9.51555 105.799 -9.68947 105.642 -9.78275L95.08 -16.0697C95.0025 -16.1158 94.9171 -16.1389 94.8305 -16.1389C94.744 -16.1389 94.6585 -16.1158 94.5811 -16.0697L84.0189 -9.78275C83.862 -9.68947 83.7654 -9.51555 83.7654 -9.32797V2.19816C83.7655 2.38574 83.8621 2.55966 84.019 2.65294Z" fill="url(#paint13_linear)"/>
<path d="M117.187 8.71209L127.749 2.42512C127.904 2.33292 128.093 2.33292 128.248 2.42512L138.81 8.71209C138.967 8.80536 139.064 8.97929 139.064 9.16686V20.693C139.064 20.8806 138.967 21.0545 138.81 21.1478L128.248 27.4347C128.171 27.4809 128.085 27.5039 127.999 27.5039C127.912 27.5039 127.826 27.4809 127.749 27.4347L117.187 21.1478C117.03 21.0545 116.933 20.8806 116.933 20.693V9.16686C116.933 8.97929 117.03 8.80536 117.187 8.71209Z" fill="url(#paint14_linear)"/>
<path d="M128.327 27.3693L138.889 21.0823C139.044 20.9901 139.233 20.9901 139.388 21.0823L149.95 27.3693C150.107 27.4625 150.204 27.6365 150.204 27.824V39.3502C150.204 39.5377 150.107 39.7117 149.95 39.8049L139.388 46.0919C139.311 46.138 139.225 46.1611 139.139 46.1611C139.052 46.1611 138.967 46.138 138.889 46.0919L128.327 39.8049C128.17 39.7117 128.074 39.5377 128.074 39.3502V27.824C128.074 27.6365 128.17 27.4625 128.327 27.3693Z" fill="url(#paint15_linear)"/>
<mask id="path-16-inside-7" fill="white">
<path d="M139.202 8.57301L149.764 2.28604C149.919 2.19385 150.108 2.19385 150.263 2.28604L160.825 8.57301C160.982 8.66629 161.079 8.84021 161.079 9.02779V20.5539C161.079 20.7415 160.982 20.9154 160.825 21.0087L150.263 27.2957C150.186 27.3418 150.1 27.3648 150.014 27.3648C149.927 27.3648 149.842 27.3418 149.764 27.2957L139.202 21.0087C139.045 20.9154 138.949 20.7415 138.949 20.5539V9.02779C138.949 8.84021 139.045 8.66629 139.202 8.57301Z"/>
</mask>
<path d="M139.202 8.57301L149.764 2.28604C149.919 2.19385 150.108 2.19385 150.263 2.28604L160.825 8.57301C160.982 8.66629 161.079 8.84021 161.079 9.02779V20.5539C161.079 20.7415 160.982 20.9154 160.825 21.0087L150.263 27.2957C150.186 27.3418 150.1 27.3648 150.014 27.3648C149.927 27.3648 149.842 27.3418 149.764 27.2957L139.202 21.0087C139.045 20.9154 138.949 20.7415 138.949 20.5539V9.02779C138.949 8.84021 139.045 8.66629 139.202 8.57301Z" fill="url(#paint16_linear)" stroke="#C4C4C4" stroke-width="0.2" mask="url(#path-16-inside-7)"/>
<g filter="url(#filter0_i)">
<path d="M113.712 136.663L92.4841 85.2103C92.4841 85.2103 97.1955 72.8469 99.5512 66.8732C100.742 63.6785 97.9896 64.068 96.7984 64.068C93.2517 64.068 85.7876 64.068 81.4733 64.068C78.7207 64.068 77.9267 65.6523 77.556 66.8732C75.5974 72.4574 70.489 85.6259 70.489 85.6259L87.7993 127.079H62.6545L44.9736 85.5998L61.4633 44.5101L109 44.8997L127.078 85.1844C127.078 85.1844 123.161 94.7685 121.176 99.1579C120.382 101.548 120.382 102.742 121.176 104.353C122.737 108.353 126.284 116.326 127.846 120.716C128.64 122.3 129.804 123.106 130.598 121.106C134.913 110.742 142.006 94.7685 142.006 94.7685C145.156 87.6 145.553 83.9897 142.006 76.0158L124.723 35.3415C120.408 26.9521 116.464 26.5625 106.645 26.5625H64.1895C53.9728 26.5625 50.4261 26.9521 46.1118 35.3415L28.0604 76.0158C24.5137 84.4051 24.5137 87.5739 28.0604 94.7685L43.7826 131.079C49.6849 142.637 51.2466 143.443 65.0102 143.443H109.027C114.109 143.443 114.903 139.443 113.712 136.663Z" fill="white"/>
</g>
</g>
<defs>
<filter id="filter0_i" x="25.2004" y="26.5625" width="119.319" height="117.08" filterUnits="userSpaceOnUse" color-interpolation-filters="sRGB">
<feFlood flood-opacity="0" result="BackgroundImageFix"/>
<feBlend mode="normal" in="SourceGraphic" in2="BackgroundImageFix" result="shape"/>
<feColorMatrix in="SourceAlpha" type="matrix" values="0 0 0 0 0 0 0 0 0 0 0 0 0 0 0 0 0 0 127 0" result="hardAlpha"/>
<feOffset dx="-0.2" dy="0.2"/>
<feGaussianBlur stdDeviation="0.25"/>
<feComposite in2="hardAlpha" operator="arithmetic" k2="-1" k3="1"/>
<feColorMatrix type="matrix" values="0 0 0 0 0.123594 0 0 0 0 0.470833 0 0 0 0 0.302081 0 0 0 1 0"/>
<feBlend mode="normal" in2="shape" result="effect1_innerShadow"/>
</filter>
<linearGradient id="paint0_linear" x1="0" y1="0" x2="85" y2="170" gradientUnits="userSpaceOnUse">
<stop stop-color="#15EB83"/>
<stop offset="1" stop-color="#0ABA65"/>
</linearGradient>
<linearGradient id="paint1_linear" x1="-1.30811" y1="162.4" x2="32.9532" y2="201.334" gradientUnits="userSpaceOnUse">
<stop stop-color="#D5D5D5"/>
<stop offset="1" stop-color="white"/>
</linearGradient>
<linearGradient id="paint2_linear" x1="-34.6766" y1="162.06" x2="-0.415221" y2="200.993" gradientUnits="userSpaceOnUse">
<stop stop-color="#D5D5D5"/>
<stop offset="1" stop-color="white"/>
</linearGradient>
<linearGradient id="paint3_linear" x1="33.2982" y1="200.883" x2="67.5595" y2="161.95" gradientUnits="userSpaceOnUse">
<stop stop-color="#C7C7C7"/>
<stop offset="1" stop-color="#C4C4C4" stop-opacity="0"/>
</linearGradient>
<linearGradient id="paint4_linear" x1="68.4569" y1="200.403" x2="102.718" y2="161.47" gradientUnits="userSpaceOnUse">
<stop stop-color="#C7C7C7"/>
<stop offset="1" stop-color="#C4C4C4" stop-opacity="0"/>
</linearGradient>
<linearGradient id="paint5_linear" x1="15.9384" y1="172.031" x2="50.1998" y2="133.098" gradientUnits="userSpaceOnUse">
<stop stop-color="#C7C7C7"/>
<stop offset="1" stop-color="#C4C4C4" stop-opacity="0"/>
</linearGradient>
<linearGradient id="paint6_linear" x1="-1.06367" y1="143.008" x2="33.1977" y2="104.075" gradientUnits="userSpaceOnUse">
<stop stop-color="#C7C7C7"/>
<stop offset="1" stop-color="#C4C4C4" stop-opacity="0"/>
</linearGradient>
<linearGradient id="paint7_linear" x1="-18.0137" y1="171.558" x2="16.2477" y2="132.624" gradientUnits="userSpaceOnUse">
<stop stop-color="#D5D5D5"/>
<stop offset="1" stop-color="white"/>
</linearGradient>
<linearGradient id="paint8_linear" x1="150.844" y1="8.76843" x2="128.714" y2="-16.3795" gradientUnits="userSpaceOnUse">
<stop stop-color="#D5D5D5"/>
<stop offset="1" stop-color="white"/>
</linearGradient>
<linearGradient id="paint9_linear" x1="183.221" y1="27.1307" x2="161.091" y2="1.98269" gradientUnits="userSpaceOnUse">
<stop stop-color="#D5D5D5"/>
<stop offset="1" stop-color="white"/>
</linearGradient>
<linearGradient id="paint10_linear" x1="172.855" y1="20.3798" x2="150.725" y2="45.5277" gradientUnits="userSpaceOnUse">
<stop stop-color="#C7C7C7"/>
<stop offset="1" stop-color="#C4C4C4" stop-opacity="0"/>
</linearGradient>
<linearGradient id="paint11_linear" x1="172.411" y1="8.81817" x2="150.281" y2="-16.3297" gradientUnits="userSpaceOnUse">
<stop stop-color="#D5D5D5"/>
<stop offset="1" stop-color="white"/>
</linearGradient>
<linearGradient id="paint12_linear" x1="128.129" y1="-15.8608" x2="105.999" y2="9.28709" gradientUnits="userSpaceOnUse">
<stop stop-color="#C7C7C7"/>
<stop offset="1" stop-color="#C4C4C4" stop-opacity="0"/>
</linearGradient>
<linearGradient id="paint13_linear" x1="105.594" y1="-15.7364" x2="83.4634" y2="9.41158" gradientUnits="userSpaceOnUse">
<stop stop-color="#C7C7C7"/>
<stop offset="1" stop-color="#C4C4C4" stop-opacity="0"/>
</linearGradient>
<linearGradient id="paint14_linear" x1="139.566" y1="2.35622" x2="117.436" y2="27.5041" gradientUnits="userSpaceOnUse">
<stop stop-color="#C7C7C7"/>
<stop offset="1" stop-color="#C4C4C4" stop-opacity="0"/>
</linearGradient>
<linearGradient id="paint15_linear" x1="150.706" y1="21.0134" x2="128.576" y2="46.1613" gradientUnits="userSpaceOnUse">
<stop stop-color="#C7C7C7"/>
<stop offset="1" stop-color="#C4C4C4" stop-opacity="0"/>
</linearGradient>
<linearGradient id="paint16_linear" x1="161.483" y1="2.51875" x2="139.352" y2="27.6667" gradientUnits="userSpaceOnUse">
<stop stop-color="#D5D5D5"/>
<stop offset="1" stop-color="white"/>
</linearGradient>
<clipPath id="clip0">
<rect width="170" height="170" fill="white"/>
</clipPath>
</defs>
</svg>
