<svg data-v-423bf9ae="" xmlns="http://www.w3.org/2000/svg" viewBox="0 0 359 90" class="iconLeft"><!----><!----><!----><g data-v-423bf9ae="" id="90ef4897-12df-45a7-84b9-31fd35e131bf" fill="#7DE38D" transform="matrix(6.349206477356088,0,0,6.349206477356088,112.0317443496581,-16.99999992683452)"><path d="M10.91 5.04L10.91 5.04Q11.48 5.04 11.48 5.40L11.48 5.40L11.48 5.40Q11.48 5.50 11.47 5.54L11.47 5.54L11.47 5.54Q11.42 5.68 11.34 5.76L11.34 5.76L11.34 5.76Q11.26 5.84 11.10 5.94L11.10 5.94L11.10 5.94Q10.89 6.06 10.75 6.22L10.75 6.22L10.75 6.22Q10.61 6.37 10.51 6.69L10.51 6.69L8.78 12.91L8.78 12.91Q8.54 13.75 8.18 14.08L8.18 14.08L8.18 14.08Q7.83 14.42 7.20 14.42L7.20 14.42L7.20 14.42Q6.64 14.42 6.27 14.09L6.27 14.09L6.27 14.09Q5.89 13.76 5.57 13.08L5.57 13.08L3.46 8.62L2.28 12.71L2.28 12.71Q2.24 12.89 2.24 13.03L2.24 13.03L2.24 13.03Q2.24 13.22 2.30 13.34L2.30 13.34L2.30 13.34Q2.37 13.45 2.48 13.58L2.48 13.58L2.48 13.58Q2.63 13.76 2.63 13.89L2.63 13.89L2.63 13.89Q2.63 13.97 2.62 14.01L2.62 14.01L2.62 14.01Q2.56 14.21 2.37 14.29L2.37 14.29L2.37 14.29Q2.17 14.36 1.78 14.36L1.78 14.36L0.25 14.36L0.25 14.36Q-0.32 14.36-0.32 14L-0.32 14L-0.32 14Q-0.32 13.90-0.31 13.86L-0.31 13.86L-0.31 13.86Q-0.27 13.72-0.18 13.64L-0.18 13.64L-0.18 13.64Q-0.10 13.57 0.06 13.47L0.06 13.47L0.06 13.47Q0.27 13.34 0.41 13.19L0.41 13.19L0.41 13.19Q0.55 13.03 0.64 12.71L0.64 12.71L2.42 6.43L2.20 5.96L2.20 5.96Q2.06 5.68 2.06 5.47L2.06 5.47L2.06 5.47Q2.06 5.04 2.62 5.04L2.62 5.04L4.69 5.04L4.69 5.04Q5.14 5.04 5.37 5.24L5.37 5.24L5.37 5.24Q5.60 5.45 5.87 5.96L5.87 5.96L7.91 10.07L8.88 6.69L8.88 6.69Q8.92 6.50 8.92 6.37L8.92 6.37L8.92 6.37Q8.92 6.19 8.86 6.07L8.86 6.07L8.86 6.07Q8.79 5.95 8.68 5.82L8.68 5.82L8.68 5.82Q8.53 5.64 8.53 5.52L8.53 5.52L8.53 5.52Q8.53 5.43 8.54 5.39L8.54 5.39L8.54 5.39Q8.60 5.19 8.79 5.12L8.79 5.12L8.79 5.12Q8.99 5.04 9.38 5.04L9.38 5.04L10.91 5.04ZM15.60 6.96L15.60 6.96Q17.50 6.96 18.40 7.73L18.40 7.73L18.40 7.73Q19.31 8.50 19.31 9.74L19.31 9.74L19.31 9.74Q19.31 10.16 19.19 10.68L19.19 10.68L19.19 10.68Q18.93 11.83 18.20 12.69L18.20 12.69L18.20 12.69Q17.47 13.55 16.41 14.02L16.41 14.02L16.41 14.02Q15.36 14.49 14.13 14.49L14.13 14.49L14.13 14.49Q12.18 14.49 11.25 13.71L11.25 13.71L11.25 13.71Q10.32 12.94 10.32 11.65L10.32 11.65L10.32 11.65Q10.32 11.21 10.43 10.68L10.43 10.68L10.43 10.68Q10.70 9.59 11.45 8.74L11.45 8.74L11.45 8.74Q12.19 7.90 13.28 7.43L13.28 7.43L13.28 7.43Q14.36 6.96 15.60 6.96L15.60 6.96ZM15.55 8.20L15.55 8.20Q15.26 8.20 14.93 8.73L14.93 8.73L14.93 8.73Q14.60 9.25 14.15 10.71L14.15 10.71L14.15 10.71Q13.71 12.17 13.71 12.75L13.71 12.75L13.71 12.75Q13.71 13.06 13.80 13.17L13.80 13.17L13.80 13.17Q13.90 13.27 14.07 13.27L14.07 13.27L14.07 13.27Q14.36 13.30 14.68 12.77L14.68 12.77L14.68 12.77Q14.99 12.24 15.47 10.70L15.47 10.70L15.47 10.70Q15.90 9.34 15.90 8.72L15.90 8.72L15.90 8.72Q15.90 8.43 15.81 8.32L15.81 8.32L15.81 8.32Q15.72 8.20 15.55 8.20L15.55 8.20ZM25.62 7.14L25.62 7.14Q25.89 7.14 26.03 7.25L26.03 7.25L26.03 7.25Q26.18 7.36 26.18 7.56L26.18 7.56L26.18 7.56Q26.18 7.62 26.15 7.76L26.15 7.76L26.15 7.76Q25.97 8.37 25.31 8.37L25.31 8.37L24.50 8.37L23.45 11.83L23.45 11.83Q23.38 12.04 23.38 12.26L23.38 12.26L23.38 12.26Q23.38 12.52 23.52 12.61L23.52 12.61L23.52 12.61Q23.66 12.71 23.91 12.71L23.91 12.71L23.91 12.71Q24.14 12.71 24.47 12.66L24.47 12.66L24.47 12.66Q24.64 12.61 24.77 12.61L24.77 12.61L24.77 12.61Q24.86 12.61 24.91 12.68L24.91 12.68L24.91 12.68Q24.96 12.74 24.96 12.84L24.96 12.84L24.96 12.84Q24.98 13.12 24.55 13.52L24.55 13.52L24.55 13.52Q24.12 13.92 23.39 14.20L23.39 14.20L23.39 14.20Q22.67 14.49 21.78 14.49L21.78 14.49L21.78 14.49Q20.83 14.49 20.26 14.06L20.26 14.06L20.26 14.06Q19.68 13.62 19.68 12.87L19.68 12.87L19.68 12.87Q19.68 12.52 19.80 12.19L19.80 12.19L20.69 9.42L20.69 9.42Q20.76 9.18 20.76 9.04L20.76 9.04L20.76 9.04Q20.76 8.76 20.63 8.57L20.63 8.57L20.63 8.57Q20.50 8.37 20.26 8.16L20.26 8.16L20.26 8.16Q20.05 7.97 19.96 7.83L19.96 7.83L19.96 7.83Q19.88 7.70 19.92 7.52L19.92 7.52L19.92 7.52Q19.98 7.34 20.16 7.24L20.16 7.24L20.16 7.24Q20.34 7.14 20.73 7.14L20.73 7.14L21.52 7.14L22.40 6.26L22.40 6.26Q22.86 5.80 23.25 5.61L23.25 5.61L23.25 5.61Q23.63 5.43 24.25 5.43L24.25 5.43L24.25 5.43Q25.13 5.43 25.13 6.10L25.13 6.10L25.13 6.10Q25.13 6.31 25.07 6.50L25.07 6.50L24.88 7.14L25.62 7.14ZM30.94 7.14L30.94 7.14Q31.21 7.14 31.35 7.25L31.35 7.25L31.35 7.25Q31.50 7.36 31.50 7.56L31.50 7.56L31.50 7.56Q31.50 7.62 31.47 7.76L31.47 7.76L31.47 7.76Q31.29 8.37 30.63 8.37L30.63 8.37L29.82 8.37L28.77 11.83L28.77 11.83Q28.70 12.04 28.70 12.26L28.70 12.26L28.70 12.26Q28.70 12.52 28.84 12.61L28.84 12.61L28.84 12.61Q28.98 12.71 29.23 12.71L29.23 12.71L29.23 12.71Q29.46 12.71 29.79 12.66L29.79 12.66L29.79 12.66Q29.96 12.61 30.09 12.61L30.09 12.61L30.09 12.61Q30.18 12.61 30.23 12.68L30.23 12.68L30.23 12.68Q30.28 12.74 30.28 12.84L30.28 12.84L30.28 12.84Q30.30 13.12 29.87 13.52L29.87 13.52L29.87 13.52Q29.44 13.92 28.71 14.20L28.71 14.20L28.71 14.20Q27.99 14.49 27.10 14.49L27.10 14.49L27.10 14.49Q26.15 14.49 25.58 14.06L25.58 14.06L25.58 14.06Q25.00 13.62 25.00 12.87L25.00 12.87L25.00 12.87Q25.00 12.52 25.12 12.19L25.12 12.19L26.01 9.42L26.01 9.42Q26.08 9.18 26.08 9.04L26.08 9.04L26.08 9.04Q26.08 8.76 25.95 8.57L25.95 8.57L25.95 8.57Q25.82 8.37 25.58 8.16L25.58 8.16L25.58 8.16Q25.37 7.97 25.28 7.83L25.28 7.83L25.28 7.83Q25.20 7.70 25.24 7.52L25.24 7.52L25.24 7.52Q25.30 7.34 25.48 7.24L25.48 7.24L25.48 7.24Q25.66 7.14 26.05 7.14L26.05 7.14L26.84 7.14L27.72 6.26L27.72 6.26Q28.18 5.80 28.57 5.61L28.57 5.61L28.57 5.61Q28.95 5.43 29.57 5.43L29.57 5.43L29.57 5.43Q30.45 5.43 30.45 6.10L30.45 6.10L30.45 6.10Q30.45 6.31 30.39 6.50L30.39 6.50L30.20 7.14L30.94 7.14ZM35.45 6.89L35.45 6.89Q37.23 6.89 38.02 7.46L38.02 7.46L38.02 7.46Q38.82 8.02 38.82 8.90L38.82 8.90L38.82 8.90Q38.82 9.17 38.77 9.39L38.77 9.39L38.77 9.39Q38.56 10.32 37.60 10.72L37.60 10.72L37.60 10.72Q36.64 11.12 35.34 11.12L35.34 11.12L35.34 11.12Q34.68 11.12 34.10 11.03L34.10 11.03L34.10 11.03Q34.09 11.76 34.50 12.05L34.50 12.05L34.50 12.05Q34.90 12.35 35.63 12.35L35.63 12.35L35.63 12.35Q35.97 12.35 36.27 12.27L36.27 12.27L36.27 12.27Q36.58 12.19 37.06 12.04L37.06 12.04L37.06 12.04Q37.45 11.90 37.59 11.90L37.59 11.90L37.59 11.90Q37.74 11.90 37.74 12.08L37.74 12.08L37.74 12.08Q37.76 12.57 37.38 13.11L37.38 13.11L37.38 13.11Q37.00 13.65 36.26 14.03L36.26 14.03L36.26 14.03Q35.52 14.41 34.47 14.41L34.47 14.41L34.47 14.41Q32.91 14.41 31.92 13.62L31.92 13.62L31.92 13.62Q30.93 12.84 30.93 11.34L30.93 11.34L30.93 11.34Q30.93 10.92 31.04 10.36L31.04 10.36L31.04 10.36Q31.39 8.64 32.57 7.76L32.57 7.76L32.57 7.76Q33.75 6.89 35.45 6.89L35.45 6.89ZM34.20 10.19L34.20 10.19Q34.26 10.21 34.36 10.21L34.36 10.21L34.36 10.21Q34.94 10.21 35.25 9.66L35.25 9.66L35.25 9.66Q35.56 9.11 35.55 8.44L35.55 8.44L35.55 8.44Q35.53 8.05 35.32 8.05L35.32 8.05L35.32 8.05Q35.17 8.05 34.96 8.30L34.96 8.30L34.96 8.30Q34.75 8.54 34.55 9.03L34.55 9.03L34.55 9.03Q34.34 9.52 34.20 10.19L34.20 10.19Z"></path></g><!----><g data-v-423bf9ae="" id="26a1db9c-2ada-462f-99d6-6fd493dedd5e" transform="matrix(2.8125,0,0,2.8125,0,0)" stroke="none" fill="#7DE38D"><path d="M0 16l16 16 16-16L16 0 0 16zm16 13.172L2.828 16 16 2.828 29.172 16 16 29.172z"></path><path d="M14.751 9.991v4.76h-2.262v-4.76H9.991v12.018h2.498v-4.76h2.262v4.76h2.498v-4.76h2.262v4.76h2.498V9.991h-2.498v4.76h-2.262v-4.76z"></path></g><!----></svg>